<svg width="20" height="20" viewBox="0 0 20 20" fill="none" xmlns="http://www.w3.org/2000/svg">
<path d="M12.0281 12.6475L11.4716 12.5424L11.0953 12.9658L10.176 14H8.75H7.75V15V16.5H6.25H5.25V17.5V19H1V16.0392L7.30207 9.73711L7.73752 9.30165L7.54465 8.71681C7.35387 8.1383 7.25 7.51962 7.25 6.875C7.25 3.63033 9.88029 1.00003 13.125 1C16.3808 0.999967 19 3.61912 19 6.87504C19 10.1197 16.3697 12.75 13.125 12.75C12.75 12.75 12.3835 12.7145 12.0281 12.6475ZM10.2041 14H10.204H10.2041ZM12.125 5C12.125 6.58783 13.4122 7.875 15 7.875C16.5878 7.875 17.875 6.58783 17.875 5C17.875 3.41217 16.5878 2.125 15 2.125C13.4122 2.125 12.125 3.41217 12.125 5Z" fill="white" stroke="black" stroke-width="2"/>
</svg>
